<?xml version="1.0" encoding="UTF-8"?>
<svg id="Layer_1" xmlns="http://www.w3.org/2000/svg" version="1.1" viewBox="0 0 512 512">
  <!-- Generator: Adobe Illustrator 30.5.1, SVG Export Plug-In . SVG Version: 2.1.4 Build 3)  -->
  <defs>
    <style>
      .st0 {
        fill: #fff;
      }

      .st1 {
        fill: #ef744c;
      }

      .st2 {
        fill: #04928e;
      }

      .st3 {
        fill: #fbbe1e;
      }

      .st4 {
        fill: #042455;
      }

      .st5 {
        fill: #01a19f;
      }
    </style>
  </defs>
  <rect class="st0" width="512" height="512"/>
  <path class="st5" d="M356.6,183.01c6.43-.72,6.25,17.61.07,18.87-6.72-.05-13.63-.67-22.5.82l-.17,73.17c-.02,7.96-5.49,11.46-13.21,11.49l-43.52.17-.18,61.99c-.02,7.44-5.18,11.97-12.35,11.97l-100.52.04-.32,58.48c-.03,6.37-5.24,10.65-11.42,10.76l-53.64.98c85.55,87.86,220.14,78.96,296.27-16.09-15.63-4.41-30.01,2.64-31.54-10.4-.54-4.63,3.02-10.49,9.17-10.54l39.56-.32c6.52-.05,11.7,4.25,11.69,10.79l-.08,50.35c0,4.49-2.65,7.7-6.05,9.22-2.45,1.09-8.53,1.51-10.04-1.96-3.86-8.83-2-17.58-2.68-28.14-53.46,60.8-127.7,88.51-209.02,73.19-23.39-4.41-40.88-11.44-61.9-22.25-5.91-3.04-11.32-7.81-17.28-11.46-16.06-9.81-48.62-42.95-55.68-56.75l-19.94-38.99c-7.69-15.03-15.56-65.51-13.37-80.1,3.15-21.04,3.94-42.14,12.09-62.01,10.56-25.74,23.49-49.68,42.22-69.95,50.83-55.04,123.95-79.95,198.29-66.89,4.76.84,7.34,2.76,8.24,6.25.65,2.51-1.19,10.02-5.72,9.15-90.33-17.4-180.54,29.83-217.94,112.51-27.26,60.28-22,129.41,17.12,184.29l64.11.12-.4-57.13c-.04-5.99,5.31-11.6,11.63-11.61l101.72-.16.37-62.24c.04-6.27,5.59-10.88,11.7-11.44l44.53-.39.09-71.86c.01-8.54,6.6-13.54,15.17-13.63l25.43-.3Z"/>
  <path class="st1" d="M374.89,183.96c6.41.95,5.97,16.69-.18,18.05l-18.04-.12-.07-18.87.71-178.12c.02-4.74,8.73-5.57,11.72-4.45,4.36,1.64,7.09,6.31,6.66,13.29l109.14,33.66c5.13,1.58,5.78,8.57,5.07,12.3-.97,5.14-5.63,6.39-10.78,8.47l-104.24,42.09v73.69Z"/>
  <path class="st2" d="M374.71,202.01l.18-18.05,70.52-.14c5.95,0,12.31,4.39,12.41,11.11l1.45,101.62c.3,21.35-2.9,41.47-6.92,62.03-.91,4.68-6.07,7.05-9.74,6.5-3.48-.53-8.1-4.57-7-9.36,5.93-25.71,7.63-51.03,6.85-77.56l-2.23-76.09-65.53-.06Z"/>
  <g>
    <ellipse class="st3" cx="214.05" cy="243.02" rx="33.35" ry="32.81"/>
    <path class="st3" d="M247.69,330.41l-88.57.06c-3.26-6.01-1.37-12.92,2.98-18.79,19.63-26.52,56.96-31.77,85.07-14.74l.52,33.47Z"/>
  </g>
  <path class="st4" d="M363.28,0h5.55c3.69,0,6.68,3,6.68,6.68v195.32h-18.92V6.69c0-3.69,3-6.68,6.68-6.68Z"/>
  <rect class="st4" x="164.01" y="342.78" width="95.26" height="18.74"/>
  <polygon class="st4" points="316 287.52 277.55 287.52 277.55 269.14 316 268.85 316 287.52"/>
  <polygon class="st4" points="146.04 430.96 98.84 431.75 82.26 411.65 146.04 411.79 146.04 430.96"/>
</svg>